# xmcd
#
# Track frame offsets:
#	150
#	40080
#	69670
#	124260
#	158270
#	206760
#	265490
#	288430
#
# Disc length: 4252 seconds
#
# Revision: 0
# Processed by: cddbd v1.4PL0 Copyright (c) Steve Scherf et al.
# Submitted via: audiograbber 1.81.02
#
DISCID=73109a08
DTITLE=Johnny Winter - Live At The Diamond Club - Toronto - Tue Mar 14 1989
DYEAR=1900
DGENRE=
TTITLE0=Instrumental 
TTITLE1=I'm Good
TTITLE2=Lover With A Feeling
TTITLE3=I Wanna Know
TTITLE4=Bony Moronie - Drum Solo
TTITLE5=Mojo Boogie - Unknown Track
TTITLE6=Johnny B Goode
TTITLE7=Encores
EXTD=
EXTT0=
EXTT1=
EXTT2=
EXTT3=
EXTT4=
EXTT5=
EXTT6=
EXTT7=
PLAYORDER=
